HIERARCHY
ROOT Hips
{
    OFFSET   0.000000   0.000000   0.000000
    CHANNELS 6 Xposition Yposition Zposition Zrotation Xrotation Yrotation
    JOINT Chest
    {
        OFFSET   0.000000   8.007240   0.000000
        CHANNELS 3 Zrotation Xrotation Yrotation
        JOINT Chest2
        {
            OFFSET   0.000000  22.077100   0.000000
            CHANNELS 3 Zrotation Xrotation Yrotation
            JOINT Neck
            {
                OFFSET   0.000000  23.254800   0.000000
                CHANNELS 3 Zrotation Xrotation Yrotation
                JOINT Head
                {
                    OFFSET   0.000000  14.370000   1.956600
                    CHANNELS 3 Zrotation Xrotation Yrotation
                    End Site
                    {
                        OFFSET   0.000000  19.566000   0.000000
                    }
                }
            }
            JOINT LeftCollar
            {
                OFFSET   3.911900  19.017000  -0.467064
                CHANNELS 3 Zrotation Xrotation Yrotation
                JOINT LeftShoulder
                {
                    OFFSET  10.383700   0.000000   0.000000
                    CHANNELS 3 Zrotation Xrotation Yrotation
                    JOINT LeftElbow
                    {
                        OFFSET  26.662100   0.001476   0.000517
                        CHANNELS 3 Zrotation Xrotation Yrotation
                        JOINT LeftWrist
                        {
                            OFFSET  28.869000  -0.000025  -0.000106
                            CHANNELS 3 Zrotation Xrotation Yrotation
                            JOINT LeftFinger0
                            {
                                OFFSET   2.044660  -2.323460   3.252850
                                CHANNELS 3 Zrotation Xrotation Yrotation
                                JOINT LeftFinger01
                                {
                                    OFFSET   3.088130   0.000000   0.000000
                                    CHANNELS 3 Zrotation Xrotation Yrotation
                                    JOINT LeftFinger02
                                    {
                                        OFFSET   2.639460   0.000000   0.000000
                                        CHANNELS 3 Zrotation Xrotation Yrotation
                                        End Site
                                        {
                                            OFFSET   2.582190   0.000000   0.000000
                                        }
                                    }
                                }
                            }
                            JOINT LeftFinger1
                            {
                                OFFSET   8.364480   0.000000   3.252850
                                CHANNELS 3 Zrotation Xrotation Yrotation
                                JOINT LeftFinger11
                                {
                                    OFFSET   4.646930   0.000000   0.000000
                                    CHANNELS 3 Zrotation Xrotation Yrotation
                                    JOINT LeftFinger12
                                    {
                                        OFFSET   2.323460   0.000000   0.000000
                                        CHANNELS 3 Zrotation Xrotation Yrotation
                                        End Site
                                        {
                                            OFFSET   2.273050   0.000000   0.000000
                                        }
                                    }
                                }
                            }
                            JOINT LeftFinger2
                            {
                                OFFSET   8.364490   0.000015   1.078090
                                CHANNELS 3 Zrotation Xrotation Yrotation
                                JOINT LeftFinger21
                                {
                                    OFFSET   5.111620   0.000000   0.000000
                                    CHANNELS 3 Zrotation Xrotation Yrotation
                                    JOINT LeftFinger22
                                    {
                                        OFFSET   2.788160   0.000016   0.000000
                                        CHANNELS 3 Zrotation Xrotation Yrotation
                                        End Site
                                        {
                                            OFFSET   2.727660   0.000000   0.000000
                                        }
                                    }
                                }
                            }
                            JOINT LeftFinger3
                            {
                                OFFSET   7.899780   0.000017  -1.078090
                                CHANNELS 3 Zrotation Xrotation Yrotation
                                JOINT LeftFinger31
                                {
                                    OFFSET   4.646930   0.000000   0.000000
                                    CHANNELS 3 Zrotation Xrotation Yrotation
                                    JOINT LeftFinger32
                                    {
                                        OFFSET   2.323470   0.000000   0.000000
                                        CHANNELS 3 Zrotation Xrotation Yrotation
                                        End Site
                                        {
                                            OFFSET   2.273050   0.000000   0.000000
                                        }
                                    }
                                }
                            }
                            JOINT LeftFinger4
                            {
                                OFFSET   7.435090   0.000000  -3.252850
                                CHANNELS 3 Zrotation Xrotation Yrotation
                                JOINT LeftFinger41
                                {
                                    OFFSET   3.717550   0.000000   0.000000
                                    CHANNELS 3 Zrotation Xrotation Yrotation
                                    JOINT LeftFinger42
                                    {
                                        OFFSET   1.858770   0.000000   0.000000
                                        CHANNELS 3 Zrotation Xrotation Yrotation
                                        End Site
                                        {
                                            OFFSET   1.818440   0.000000   0.000000
                                        }
                                    }
                                }
                            }
                        }
                    }
                }
            }
            JOINT RightCollar
            {
                OFFSET  -3.911900  19.017000  -0.467063
                CHANNELS 3 Zrotation Xrotation Yrotation
                JOINT RightShoulder
                {
                    OFFSET -10.383700   0.000019   0.000000
                    CHANNELS 3 Zrotation Xrotation Yrotation
                    JOINT RightElbow
                    {
                        OFFSET -26.662100   0.001175   0.000102
                        CHANNELS 3 Zrotation Xrotation Yrotation
                        JOINT RightWrist
                        {
                            OFFSET -28.869000   0.000016  -0.000079
                            CHANNELS 3 Zrotation Xrotation Yrotation
                            JOINT RightFinger0
                            {
                                OFFSET  -2.044660  -2.323490   3.252850
                                CHANNELS 3 Zrotation Xrotation Yrotation
                                JOINT RightFinger01
                                {
                                    OFFSET  -3.088140   0.000000   0.000000
                                    CHANNELS 3 Zrotation Xrotation Yrotation
                                    JOINT RightFinger02
                                    {
                                        OFFSET  -2.639460   0.000000   0.000000
                                        CHANNELS 3 Zrotation Xrotation Yrotation
                                        End Site
                                        {
                                            OFFSET  -2.582190   0.000000   0.000000
                                        }
                                    }
                                }
                            }
                            JOINT RightFinger1
                            {
                                OFFSET  -8.364480   0.000000   3.252850
                                CHANNELS 3 Zrotation Xrotation Yrotation
                                JOINT RightFinger11
                                {
                                    OFFSET  -4.646930   0.000000   0.000000
                                    CHANNELS 3 Zrotation Xrotation Yrotation
                                    JOINT RightFinger12
                                    {
                                        OFFSET  -2.323470   0.000000   0.000000
                                        CHANNELS 3 Zrotation Xrotation Yrotation
                                        End Site
                                        {
                                            OFFSET  -2.273050   0.000000   0.000000
                                        }
                                    }
                                }
                            }
                            JOINT RightFinger2
                            {
                                OFFSET  -8.364480   0.000000   1.078090
                                CHANNELS 3 Zrotation Xrotation Yrotation
                                JOINT RightFinger21
                                {
                                    OFFSET  -5.111620   0.000000   0.000000
                                    CHANNELS 3 Zrotation Xrotation Yrotation
                                    JOINT RightFinger22
                                    {
                                        OFFSET  -2.788160   0.000000   0.000000
                                        CHANNELS 3 Zrotation Xrotation Yrotation
                                        End Site
                                        {
                                            OFFSET  -2.727660   0.000000   0.000000
                                        }
                                    }
                                }
                            }
                            JOINT RightFinger3
                            {
                                OFFSET  -7.899780   0.000000  -1.078090
                                CHANNELS 3 Zrotation Xrotation Yrotation
                                JOINT RightFinger31
                                {
                                    OFFSET  -4.646930   0.000000   0.000000
                                    CHANNELS 3 Zrotation Xrotation Yrotation
                                    JOINT RightFinger32
                                    {
                                        OFFSET  -2.323470   0.000000   0.000000
                                        CHANNELS 3 Zrotation Xrotation Yrotation
                                        End Site
                                        {
                                            OFFSET  -2.273050   0.000000   0.000000
                                        }
                                    }
                                }
                            }
                            JOINT RightFinger4
                            {
                                OFFSET  -7.435090   0.000000  -3.252850
                                CHANNELS 3 Zrotation Xrotation Yrotation
                                JOINT RightFinger41
                                {
                                    OFFSET  -3.717550   0.000000   0.000000
                                    CHANNELS 3 Zrotation Xrotation Yrotation
                                    JOINT RightFinger42
                                    {
                                        OFFSET  -1.858770   0.000000   0.000000
                                        CHANNELS 3 Zrotation Xrotation Yrotation
                                        End Site
                                        {
                                            OFFSET  -1.818440   0.000000   0.000000
                                        }
                                    }
                                }
                            }
                        }
                    }
                }
            }
        }
    }
    JOINT LeftHip
    {
        OFFSET   9.783040   0.000000   0.000000
        CHANNELS 3 Zrotation Xrotation Yrotation
        JOINT LeftKnee
        {
            OFFSET   0.000032 -41.789100  -0.002222
            CHANNELS 3 Zrotation Xrotation Yrotation
            JOINT LeftAnkle
            {
                OFFSET   0.000087 -41.133200  -0.000135
                CHANNELS 3 Zrotation Xrotation Yrotation
                JOINT LeftToe
                {
                    OFFSET   0.000000  -6.358960  14.674500
                    CHANNELS 3 Zrotation Xrotation Yrotation
                    End Site
                    {
                        OFFSET   0.000000   0.000000   3.913200
                    }
                }
            }
        }
    }
    JOINT RightHip
    {
        OFFSET  -9.783040   0.000000   0.000000
        CHANNELS 3 Zrotation Xrotation Yrotation
        JOINT RightKnee
        {
            OFFSET   0.000047 -41.789100  -0.000896
            CHANNELS 3 Zrotation Xrotation Yrotation
            JOINT RightAnkle
            {
                OFFSET  -0.000117 -41.133300  -0.000248
                CHANNELS 3 Zrotation Xrotation Yrotation
                JOINT RightToe
                {
                    OFFSET   0.000000  -6.358970  14.674500
                    CHANNELS 3 Zrotation Xrotation Yrotation
                    End Site
                    {
                        OFFSET   0.000000   0.000000   3.913200
                    }
                }
            }
        }
    }
}
MOTION
Frames: 6
Frame Time:   0.016667
 -3.358540  89.507300   1.906070  -1.856740  -3.829950   2.065820   1.890280   3.965870  -1.246080   3.880650   7.887320  -2.632350  -0.569658  -0.033508   0.000912  -0.936416  -0.069919   9.155450  -9.052460   2.573680  -1.353840 -65.947600   9.771510  -8.312390  -0.678988  -7.913360 -23.149600   8.224650 -15.157100   9.326750  41.074000  29.576900 -69.147400 -20.356000  -0.003088  -0.001063  -5.178000  -0.001688  -0.000917 -30.068400   5.909390 -10.083900 -25.028200  -0.001081  -0.001299 -17.519700   0.003042  -0.001074 -28.267100   1.521150  -2.826440 -34.250600  -0.000369  -0.007765 -22.810900  -0.000238   0.003293 -28.370800  -0.480521   0.889712 -34.852700  -0.003106  -0.007344 -23.211900  -0.000935  -0.005319 -31.526500  -2.754300   4.478990 -47.451000  -0.010638  -0.008841 -31.602400  -0.001210  -0.002452   4.419070  -0.241134  14.218300  63.596900   4.627920   6.618870  -8.551110  -6.309990  27.669900 -13.087900 -15.784300   5.495290 -43.252400  35.942200  69.491400  27.085500   0.016139  -0.008178   8.542780   0.000909  -0.009627  31.748900   6.478950  10.334700  26.456100  -0.005492  -0.008548  18.519300  -0.005443   0.007795  28.409800   3.003820   5.533560  36.802500  -0.008013  -0.007832  24.510500  -0.011290  -0.007377  29.196400   1.237490   2.213480  43.830200  -0.008930  -0.012684  29.191000  -0.005341  -0.006311  36.498200  -0.095230  -0.128536  54.747400  -0.009875  -0.006313  36.461800  -0.002779   0.002051   3.801860   6.962650   2.535870   0.726913   0.258096  10.655100  -3.503550  -2.516470  -0.576436  -0.000000   0.000000   0.000000   1.643750   2.791430  -6.795980   1.655720   3.059050  -7.070820  -4.040990  -1.800050  -2.083370  -0.000000   0.000000   0.000000
 -3.358500  89.507300   1.916500  -1.855770  -3.829230   2.080940   1.890150   3.959120  -1.246030   3.880180   7.873830  -2.632120  -0.577089  -0.033623   0.000912  -0.948473  -0.070092   9.179490  -9.056120   2.578270  -1.356060 -65.901600   9.860920  -8.382950  -0.644460  -7.830600 -23.157700   8.212100 -15.094600   9.314870  41.060600  29.528000 -69.088100 -20.423500  -0.003094  -0.001059  -5.211720  -0.001694  -0.000912 -30.056700   5.874270 -10.029900 -25.012900  -0.001082  -0.001301 -17.509000   0.003044  -0.001076 -28.265500   1.493490  -2.775330 -34.224700  -0.000368  -0.007764 -22.793600  -0.000238   0.003292 -28.367800  -0.505440   0.935932 -34.837400  -0.003108  -0.007352 -23.201700  -0.000936  -0.005324 -31.513000  -2.781010   4.524640 -47.433900  -0.010645  -0.008842 -31.591000  -0.001210  -0.002453   4.419340  -0.239049  14.238400  63.558600   4.663880   6.662910  -8.522580  -6.314280  27.596800 -13.077200 -15.698100   5.500230 -43.183200  35.890600  69.373600  27.154800   0.016141  -0.008191   8.577420   0.000913  -0.009621  31.750200   6.437790  10.270200  26.451100  -0.005492  -0.008548  18.515800  -0.005444   0.007805  28.412100   2.967800   5.467150  36.787800  -0.008007  -0.007827  24.500700  -0.011289  -0.007375  29.186200   1.202190   2.151280  43.813000  -0.008929  -0.012681  29.179500  -0.005332  -0.006313  36.485300  -0.097336  -0.131412  54.727900  -0.009869  -0.006312  36.448800  -0.002773   0.002050   3.802210   6.971960   2.529450   0.727634   0.239420  10.655100  -3.501370  -2.507340  -0.576325   0.000000   0.000000  -0.000000   1.645180   2.803960  -6.796060   1.658670   3.048180  -7.065870  -4.043730  -1.799660  -2.096100  -0.000000   0.000000   0.000000
 -3.358460  89.507200   1.934800  -1.854940  -3.824630   2.096060   1.889920   3.945820  -1.245740   3.879310   7.847270  -2.630890  -0.588716  -0.033738   0.000912  -0.967252  -0.070262   9.217800  -9.064150   2.590310  -1.358290 -65.846900   9.964860  -8.489400  -0.590744  -7.703480 -23.163200   8.193110 -14.976200   9.300400  41.038900  29.434800 -68.971700 -20.543800  -0.003100  -0.001055  -5.271890  -0.001703  -0.000907 -30.044100   5.809870  -9.927380 -24.994400  -0.001087  -0.001308 -17.496100   0.003046  -0.001083 -28.263000   1.441780  -2.679680 -34.182800  -0.000366  -0.007763 -22.765700  -0.000237   0.003289 -28.362000  -0.552204   1.022720 -34.801600  -0.003116  -0.007371 -23.177900  -0.000939  -0.005338 -31.483000  -2.829270   4.608200 -47.394900  -0.010662  -0.008845 -31.565000  -0.001211  -0.002454   4.421970  -0.229129  14.271500  63.516600   4.717370   6.725990  -8.463890  -6.323740  27.443900 -13.064100 -15.568100   5.505630 -43.072000  35.805500  69.183000  27.265300   0.016146  -0.008223   8.632620   0.000922  -0.009607  31.751700   6.372580  10.168100  26.443000  -0.005492  -0.008549  18.510100  -0.005447   0.007829  28.415700   2.910410   5.361330  36.766700  -0.007992  -0.007813  24.486600  -0.011281  -0.007367  29.170200   1.145380   2.051090  43.786000  -0.008928  -0.012671  29.161500  -0.005313  -0.006315  36.464800  -0.112077  -0.151546  54.697300  -0.009861  -0.006308  36.428400  -0.002753   0.002045   3.802740   6.983300   2.520290   0.727660   0.214364  10.655500  -3.499160  -2.498210  -0.575572   0.000000   0.000000   0.000000   1.646970   2.820090  -6.796180   1.664930   3.031220  -7.057040  -4.049060  -1.799270  -2.114360   0.000000   0.000000  -0.000000
 -3.361700  89.507100   1.951180  -1.855470  -3.813400   2.093640   1.889650   3.930870  -1.244060   3.878220   7.817470  -2.626810  -0.596483  -0.033439   0.000905  -0.979808  -0.068846   9.243080  -9.074470   2.608720  -1.354730 -65.858200   9.981220  -8.556410  -0.577665  -7.631150 -23.081400   8.190760 -14.836900   9.294160  41.030800  29.332500 -68.829900 -20.660500  -0.003096  -0.001094  -5.330240  -0.001708  -0.000914 -30.047900   5.741180  -9.812060 -24.990700  -0.001098  -0.001320 -17.493500   0.003044  -0.001092 -28.260300   1.386100  -2.576560 -34.144500  -0.000363  -0.007771 -22.740200  -0.000242   0.003283 -28.354700  -0.602321   1.115860 -34.745100  -0.003128  -0.007400 -23.140300  -0.000944  -0.005359 -31.438900  -2.876800   4.693260 -47.335000  -0.010686  -0.008851 -31.525100  -0.001211  -0.002456   4.430660  -0.207788  14.296800  63.544800   4.751550   6.758090  -8.382230  -6.369320  27.260600 -13.065900 -15.490100   5.504630 -42.992100  35.738200  69.033100  27.341900   0.016151  -0.008276   8.670920   0.000933  -0.009589  31.748500   6.326990  10.098100  26.435300  -0.005503  -0.008557  18.504700  -0.005456   0.007866  28.418400   2.870110   5.286960  36.755900  -0.007971  -0.007790  24.479400  -0.011258  -0.007350  29.156700   1.103730   1.977560  43.764100  -0.008909  -0.012654  29.146900  -0.005293  -0.006313  36.447800  -0.150935  -0.204353  54.671900  -0.009860  -0.006298  36.411500  -0.002716   0.002035   3.802780   6.985670   2.517240   0.724275   0.206920  10.656000  -3.499120  -2.499540  -0.570959   0.000000   0.000000   0.000000   1.647230   2.824290  -6.796200   1.673950   3.017650  -7.050350  -4.056530  -1.801420  -2.122730   0.000000   0.000000   0.000000
 -3.367320  89.507000   1.969050  -1.856410  -3.798910   2.085920   1.889380   3.913510  -1.241800   3.877040   7.782850  -2.621710  -0.603220  -0.032621   0.000893  -0.990798  -0.066160   9.269570  -9.087680   2.633230  -1.349190 -65.905400   9.982640  -8.601390  -0.584032  -7.569450 -22.926200   8.187570 -14.710400   9.288680  41.008000  29.221600 -68.690700 -20.779300  -0.003092  -0.001133  -5.389650  -0.001718  -0.000930 -30.061900   5.675230  -9.695700 -24.990200  -0.001110  -0.001337 -17.493100   0.003040  -0.001105 -28.260600   1.328700  -2.470070 -34.122200  -0.000361  -0.007784 -22.725400  -0.000246   0.003274 -28.347500  -0.655283   1.214280 -34.689400  -0.003146  -0.007437 -23.103200  -0.000951  -0.005388 -31.394800  -2.926690   4.782270 -47.275400  -0.010719  -0.008860 -31.485400  -0.001212  -0.002460   4.445380  -0.178457  14.321600  63.613100   4.768190   6.771150  -8.276320  -6.416610  27.036600 -13.066700 -15.433800   5.504220 -42.915000  35.677300  68.906700  27.414500   0.016159  -0.008328   8.707270   0.000946  -0.009566  31.751800   6.286750  10.034300  26.430800  -0.005520  -0.008571  18.501600  -0.005469   0.007913  28.421600   2.833020   5.218300  36.751400  -0.007944  -0.007760  24.476500  -0.011222  -0.007329  29.150200   1.065390   1.909500  43.752000  -0.008877  -0.012633  29.138900  -0.005266  -0.006312  36.438100  -0.197572  -0.267532  54.657800  -0.009859  -0.006284  36.402100  -0.002670   0.002022   3.803000   6.986030   2.514010   0.721577   0.205855  10.658300  -3.499850  -2.508800  -0.562968   0.000000   0.000000   0.000000   1.647140   2.824890  -6.796220   1.682150   3.010240  -7.039790  -4.061950  -1.807180  -2.127580   0.000000   0.000000  -0.000000
 -3.372460  89.506900   1.988460  -1.857730  -3.783300   2.071550   1.889050   3.894060  -1.240030   3.875680   7.744050  -2.617280  -0.608553  -0.030848   0.000882  -0.999485  -0.062480   9.302180  -9.103000   2.663450  -1.346410 -65.977800   9.960550  -8.616900  -0.585477  -7.492730 -22.751100   8.178810 -14.648000   9.313850  40.933900  29.110900 -68.600500 -20.890700  -0.003095  -0.001118  -5.445360  -0.001736  -0.000954 -30.107900   5.632190  -9.606140 -25.018000  -0.001116  -0.001357 -17.512600   0.003037  -0.001120 -28.265700   1.280270  -2.379690 -34.148200  -0.000362  -0.007790 -22.742700  -0.000243   0.003265 -28.344100  -0.702800   1.302450 -34.668500  -0.003170  -0.007483 -23.089200  -0.000959  -0.005421 -31.372800  -2.973930   4.863160 -47.248600  -0.010763  -0.008869 -31.467600  -0.001215  -0.002464   4.465150  -0.142520  14.345400  63.699700   4.753870   6.767490  -8.154830  -6.418010  26.776600 -13.058900 -15.413600   5.509370 -42.836100  35.630700  68.831400  27.494000   0.016174  -0.008352   8.747030   0.000959  -0.009540  31.776100   6.251740   9.971160  26.444800  -0.005532  -0.008586  18.511300  -0.005484   0.007967  28.426700   2.795960   5.149150  36.785900  -0.007913  -0.007724  24.499500  -0.011177  -0.007308  29.157400   1.029210   1.844150  43.760800  -0.008853  -0.012610  29.144700  -0.005225  -0.006316  36.450700  -0.239403  -0.323982  54.676900  -0.009855  -0.006263  36.414800  -0.002624   0.002010   3.807280   6.961600   2.506680   0.716236   0.255941  10.667600  -3.506670  -2.544030  -0.553994  -0.000000   0.000000  -0.000000   1.646570   2.817920  -6.799720   1.684510   3.012120  -7.019190  -4.062710  -1.816310  -2.129910  -0.000000   0.000000   0.000000
